<?xml version="1.0" encoding="UTF-8"?>
<svg width="155.28" height="155.28" version="1.1" viewBox="0 0 155.28 155.28" xmlns="http://www.w3.org/2000/svg">
 <g transform="translate(-24.322 -125.62)">
  <rect x="24.322" y="125.62" width="155.28" height="155.28" fill="#e42c6a" stroke-width=".26458"/>
  <g transform="matrix(.32396 0 0 .33548 5.4892 64.511)" fill="#fff" aria-label="qozy">
   <path d="m115.45 488.76q-11.307 0-20.693-4.6933-9.1733-4.9067-15.787-12.8-6.6133-8.1067-10.24-18.347-3.6267-10.453-3.6267-21.76 0-11.52 4.0533-21.973 4.0533-10.453 11.093-18.347 7.2533-7.8933 16.853-12.587 9.8133-4.6933 20.907-4.6933 6.4 0 12.373 1.92 6.1867 1.7067 11.52 4.9067 5.3333 2.9867 9.6 7.4667 4.48 4.2667 7.68 9.3867v-21.76h13.013v137.17q0 5.9733 5.3333 6.1867v12.587q-2.1333 0.42666-4.2667 0.42666-1.92 0-3.84 0-4.9067-0.42666-8.32-4.2667-3.4133-3.6267-3.4133-8.7467v-55.253q-8.1067 12.373-18.773 18.773t-23.467 6.4zm4.48-12.8q6.4 0 11.947-2.1333 5.76-2.1333 10.453-5.5467 4.9067-3.6267 8.7467-8.32 3.84-4.9067 6.6133-10.24v-34.347q-0.85333-5.76-4.48-10.88-3.6267-5.3333-8.96-9.3867-5.12-4.0533-11.307-6.4-6.1867-2.3467-12.16-2.3467-8.96 0-16.64 3.84-7.4667 3.84-13.013 10.24-5.3333 6.1867-8.32 14.293-2.9867 8.1067-2.9867 16.64 0 8.96 2.9867 17.067 2.9867 8.1067 8.32 14.293 5.3333 5.9733 12.587 9.6 7.4667 3.6267 16.213 3.6267z"/>
   <path d="m251.6 488.76q-12.16 0-22.187-4.48-10.027-4.6933-17.493-12.587-7.2533-7.8933-11.307-18.347-4.0533-10.453-4.0533-21.973 0-11.733 4.0533-22.187 4.2667-10.453 11.52-18.347 7.4667-7.8933 17.493-12.587 10.027-4.6933 21.973-4.6933 11.947 0 21.973 4.6933 10.24 4.6933 17.493 12.587 7.4667 7.8933 11.52 18.347 4.2667 10.453 4.2667 22.187 0 11.52-4.0533 21.973-4.0533 10.453-11.52 18.347-7.2533 7.8933-17.493 12.587-10.027 4.48-22.187 4.48zm-40.32-57.173q0 9.3867 3.2 17.493 3.2 7.8933 8.5333 14.08 5.5467 5.9733 12.8 9.3867 7.4667 3.4133 15.787 3.4133t15.573-3.4133q7.4667-3.6267 13.013-9.6 5.5467-6.1867 8.7467-14.293t3.2-17.493q0-9.1733-3.2-17.28-3.2-8.32-8.7467-14.293-5.5467-6.1867-13.013-9.6-7.2533-3.6267-15.573-3.6267t-15.573 3.6267q-7.2533 3.4133-12.8 9.6t-8.7467 14.507q-3.2 8.1067-3.2 17.493z"/>
   <path d="m319.02 476.81 75.093-90.453h-73.387v-10.88h89.173v9.8133l-74.88 90.453h74.667v10.88h-90.667z"/>
   <path d="m439.8 520.76q1.7067 0.21333 3.2 0.21333 1.7067 0.21334 3.2 0.21334 3.84 0 5.9733-1.0667 2.3467-1.0667 4.48-4.6933 2.1333-3.6267 4.6933-10.453 2.7733-6.8267 7.68-18.347l-48.427-111.15h14.933l41.173 97.707 38.187-97.707h13.867l-57.6 143.36q-2.3467 6.1867-7.8933 10.667-5.3333 4.6933-14.72 4.6933-2.1333 0-4.0533-0.21333-1.92 0-4.6933-0.42667z"/>
  </g>
 </g>
</svg>
